<?xml version="1.0" encoding="utf-8"?>
<!-- Generator: Adobe Illustrator 22.1.0, SVG Export Plug-In . SVG Version: 6.00 Build 0)  -->
<svg version="1.1" id="Слой_1" xmlns="http://www.w3.org/2000/svg" xmlns:xlink="http://www.w3.org/1999/xlink" x="0px" y="0px"
	 viewBox="0 0 2500 300" style="enable-background:new 0 0 2500 300;" xml:space="preserve">
<style type="text/css">
	.st0{fill:#52714D;}
	.st1{fill:#EBE849;}
	.st2{fill:#121314;}
	.st3{fill:#FFFFFF;}
	.st4{fill:#0E0F0F;}
	.st5{fill:#384765;}
	.st6{fill:#79AC5D;}
	.st7{fill:#636262;}
	.st8{fill:#B2B2B2;}
	.st9{fill:#211C1D;}
	.st10{fill:#B54F46;}
	.st11{fill:#CA6345;}
	.st12{fill:#1B1917;}
	.st13{fill:#F8F8F8;}
	.st14{fill:#578F5C;}
	.st15{fill:#80AB5C;}
	.st16{fill:#5F5F5B;}
	.st17{fill:#43537A;}
</style>
<g>
	<path class="st0" d="M109.6,180.7c-9.5-4.5-20.2-7.1-31.5-7.1s-22,2.6-31.5,7.2c-3.3,7.9-5.1,16.7-5.1,25.8
		c0,9.2,1.8,17.9,5.1,25.9c9.5,4.5,20.2,7.2,31.5,7.2s22-2.6,31.5-7.2c3.3-7.9,5.2-16.7,5.2-25.9
		C114.8,197.5,112.9,188.7,109.6,180.7z"/>
	<path class="st1" d="M107.4,182.7c-8.8-4.1-18.8-6.4-29.2-6.4s-20.4,2.4-29.2,6.4c-2.9,7.5-4.5,15.5-4.5,23.9
		c0,8.4,1.6,16.5,4.5,23.9c8.8,4.2,18.8,6.4,29.2,6.4s20.5-2.3,29.2-6.4c3-7.4,4.6-15.4,4.6-23.9C112,198.2,110.3,190.1,107.4,182.7
		z"/>
	<path class="st0" d="M67.9,198.9c-1.5,3.1-2.6,6.5-3,10.4c-0.1,0-0.9,0.1-0.9,0.1c-3.3,0.3-6.6,0.6-9.8,1.8l0.2,1.2
		C59.7,219,67.7,223,67.7,223l-1.5-2.9c-0.4-0.3-1.5-0.6-1.5-0.6c-3.6-1.1-6.1-5.9-6.5-6.6c2.9,0,5.6,0.9,8,1.7
		c1.7,0.5,3.3,1,4.9,1.2c2.8,0.5,5.8,0,8.5-0.4c2.2-0.3,4.3-0.3,6.3-0.1c0.3,0.3,2.5,2.9,4.6,4.1c2.6,1.3,10.3,3.7,10.7,3.8
		c0.2,0.1,3.1,3.1,5,6.5c-8.7,4-18.4,6-28.2,6s-19.5-2.1-28.2-6c-2.8-7.4-4.4-15.1-4.4-23.1c0-7.8,1.5-15.6,4.4-23
		c8.7-4,18.4-6.1,28.2-6.1c9.8,0,19.6,2.1,28.2,6.1c2.8,7.4,4.4,15.1,4.4,23c0,7.2-1.2,14.3-3.6,21.1c-2.7-4.7-3.9-6.1-3.9-6.1
		c-0.1,0-3.9-2-4.8-2.8c-0.8-0.7-1.1-2-1.6-3.5c-0.6-2.2-1.3-4.8-3.4-7l2.4-0.9c-0.7-4.4-6-7.3-6-7.3l-0.1,0.1
		c2.1,2.6,2.5,4.6,2.5,6c0,0.7-0.1,1.1-0.2,1.3c-0.6-0.3-4.4-1.5-13.4-1.1c-1.2,0-3.1-0.1-4.3-1.1c-0.7-0.6-0.9-1.5-0.9-2.6
		c0-3.1,1.3-7.3,1.5-7.8L77,195c2.8-1.5,3.9-2.9,4-3.1c-2.4,0.3-5.5,0.9-5.5,0.9c0.2-0.5,0.8-2.3,0.8-4.3c0-2.2-0.7-4.5-3.4-6
		l-0.2,0.1c0.1,0.1,1.6,1.8,1.6,4.1c0,0.7-0.1,1.4-0.4,2.1c-0.9-0.3-1.5-0.4-2.6-0.4c-0.6-1.9-2.2-3.4-4.4-4.2l-0.1,0.1
		c0,0,2.4,1.7,2.5,4.1c-1.1,0.1-1.8,0.3-3.2,0.7c-0.7-0.9-2-1.7-3.8-1.9v0.2c0,0,2.1,0.7,2.5,2.3c-1.2,0.6-2.7,1.4-3.6,2.2l0.1,0.1
		c5.3-2,10.2-2.5,11.4-0.9c0.3,0.3,0.4,0.6,0.4,0.9c0,0.4-0.2,0.9-0.6,1.5c-2.5,0.6-6.5,1.6-9.7,2.8l0.5,1.3c0,0,3.2,0.7,4.4,0.9
		C67.7,198.5,68.2,198.6,67.9,198.9L67.9,198.9z M9.2,263.2c0,0,1.7,0.6,3.6,0.6c2.1,0,3.3-0.3,4-1c0.6-0.6,0.8-1.6,0.8-3.1V250h3.1
		v10.2c-0.1,4.5-2.2,6.4-7.3,6.4c-2.5,0-4.2-0.4-4.2-0.4L9.2,263.2L9.2,263.2z M29.6,252.9c4.9,0,7.7,2.6,7.7,6.9
		c0,3.1-2,6.7-7.7,6.7c-5.8,0-7.8-3.6-7.8-6.7C21.8,255.5,24.7,252.9,29.6,252.9z M34.3,259.7c0-2.6-1.7-4.1-4.7-4.1
		s-4.8,1.5-4.8,4.1c0,3.7,3,4.2,4.8,4.2C31.3,263.9,34.3,263.4,34.3,259.7z M49.5,253.2v5.2h-7.8v-5.2h-3v13.1h3V261h7.8v5.2h3.1
		v-13.1L49.5,253.2L49.5,253.2z M95,263.6V261h6.9v-2.6H95v-2.5h9v-2.6h-12v13.1h12v-2.7L95,263.6L95,263.6z M108.6,263.6V261h6.9
		v-2.6h-6.9v-2.5h9v-2.6h-12v13.1h12v-2.7L108.6,263.6L108.6,263.6z M137.1,263.6V261h6.9v-2.6h-6.9v-2.5h9v-2.6h-12v13.1h12v-2.7
		L137.1,263.6L137.1,263.6z M81.6,252.6c3.9,0,6.2,2,6.2,5.4c0,4.8-3.9,5.5-6.2,5.5h-4.3v-10.9L81.6,252.6L81.6,252.6z M81.6,249.9
		h-7.3v16.3h7.3c6.8,0,9.2-4.4,9.2-8C90.8,253.1,87.4,249.9,81.6,249.9z M129.3,261.3c2.3-0.6,3.2-2.3,3.2-3.9
		c0-2.6-1.7-4.2-4.7-4.2h-8.5v13.1h3v-4.8h3.6l3.6,4.8h3.7L129.3,261.3L129.3,261.3z M122.2,258.8v-3h5.5c1,0,1.7,0.6,1.7,1.5
		c0,1.3-1,1.5-1.7,1.5L122.2,258.8L122.2,258.8z M65.2,266.3l-7.9-8.9v8.9h-3v-13.1h3l7.9,8.8v-8.8h3v13.1H65.2z"/>
</g>
<g>
	<path class="st2" d="M109.6,31.7c-9.5-4.5-20.2-7.1-31.5-7.1s-22,2.6-31.5,7.2c-3.3,7.9-5.1,16.7-5.1,25.8c0,9.2,1.8,17.9,5.1,25.9
		c9.5,4.5,20.2,7.2,31.5,7.2s22-2.6,31.5-7.2c3.3-7.9,5.2-16.7,5.2-25.9C114.8,48.5,112.9,39.7,109.6,31.7z"/>
	<path class="st3" d="M107.4,33.7c-8.8-4.1-18.8-6.4-29.2-6.4s-20.4,2.4-29.2,6.4c-2.9,7.5-4.5,15.5-4.5,23.9s1.6,16.5,4.5,23.9
		c8.8,4.2,18.8,6.4,29.2,6.4s20.5-2.3,29.2-6.4c3-7.4,4.6-15.4,4.6-23.9C112,49.2,110.3,41.1,107.4,33.7z"/>
	<path class="st2" d="M67.9,49.9c-1.5,3.1-2.6,6.5-3,10.4c-0.1,0-0.9,0.1-0.9,0.1c-3.3,0.3-6.6,0.6-9.8,1.8l0.2,1.2
		c5.3,6.5,13.3,10.5,13.3,10.5L66.2,71c-0.4-0.3-1.5-0.6-1.5-0.6c-3.6-1.1-6.1-5.9-6.5-6.6c2.9,0,5.6,0.9,8,1.7
		c1.7,0.5,3.3,1,4.9,1.2c2.8,0.5,5.8,0,8.5-0.4c2.2-0.3,4.3-0.3,6.3-0.1c0.3,0.3,2.5,2.9,4.6,4.1c2.6,1.3,10.3,3.7,10.7,3.8
		c0.2,0.1,3.1,3.1,5,6.5c-8.7,4-18.4,6.1-28.2,6.1c-9.7,0-19.5-2.1-28.2-6.1c-2.8-7.4-4.3-15.1-4.3-23.1c0-7.8,1.5-15.6,4.3-23
		c8.7-4,18.4-6.1,28.2-6.1c9.8,0,19.6,2.1,28.2,6.1c2.8,7.4,4.3,15.1,4.3,23c0,7.2-1.2,14.3-3.6,21.1c-2.7-4.7-3.9-6.1-3.9-6.1
		c-0.1,0-3.9-2-4.8-2.8c-0.8-0.7-1.1-2-1.6-3.5c-0.6-2.2-1.3-4.8-3.4-7l2.4-0.9c-0.7-4.4-6-7.3-6.1-7.3l-0.1,0.1
		c2.1,2.6,2.5,4.6,2.5,6c0,0.7-0.1,1.1-0.2,1.3c-0.6-0.3-4.4-1.5-13.4-1.1c-1.2,0-3.1-0.1-4.3-1.1c-0.7-0.6-0.9-1.5-0.9-2.6
		c0-3.1,1.3-7.3,1.5-7.8L77,46c2.8-1.5,3.9-2.9,4-3.1c-2.4,0.3-5.5,0.9-5.5,0.9c0.2-0.5,0.8-2.3,0.8-4.3c0-2.2-0.7-4.5-3.4-6
		l-0.2,0.1c0.1,0.1,1.6,1.8,1.6,4.1c0,0.7-0.1,1.4-0.4,2.1c-0.9-0.3-1.5-0.4-2.6-0.4c-0.6-1.9-2.2-3.4-4.3-4.2l-0.1,0.1
		c0,0,2.4,1.7,2.5,4.1c-1.1,0.1-1.8,0.3-3.2,0.7c-0.7-0.9-2-1.7-3.8-1.9v0.2c0,0,2.1,0.7,2.5,2.3c-1.2,0.6-2.7,1.4-3.6,2.2l0.1,0.1
		c5.3-2,10.2-2.5,11.4-0.9c0.3,0.3,0.4,0.6,0.4,0.9c0,0.4-0.2,0.9-0.6,1.5C70,44.9,66,46,62.8,47.2l0.5,1.3c0,0,3.2,0.7,4.4,0.9
		C67.7,49.5,68.2,49.6,67.9,49.9L67.9,49.9z M9.2,114.2c0,0,1.7,0.6,3.6,0.6c2.1,0,3.3-0.3,4-1c0.6-0.6,0.8-1.6,0.8-3.1v-9.7h3.1
		v10.2c-0.1,4.5-2.2,6.4-7.3,6.4c-2.5,0-4.2-0.4-4.2-0.4L9.2,114.2L9.2,114.2z M29.6,103.9c4.9,0,7.7,2.6,7.7,6.9
		c0,3.1-2,6.7-7.7,6.7c-5.8,0-7.8-3.6-7.8-6.7C21.8,106.5,24.7,103.9,29.6,103.9z M34.3,110.7c0-2.6-1.7-4.1-4.7-4.1
		s-4.8,1.5-4.8,4.1c0,3.7,3,4.2,4.8,4.2C31.3,114.9,34.3,114.4,34.3,110.7z M49.5,104.2v5.2h-7.8v-5.2h-3v13.1h3V112h7.8v5.2h3.1
		v-13.1H49.5L49.5,104.2z M95,114.6V112h6.9v-2.6H95v-2.5h9v-2.6h-12v13.1h12v-2.7H95z M108.6,114.6V112h6.9v-2.6h-6.9v-2.5h9v-2.6
		h-12v13.1h12v-2.7H108.6z M137.1,114.6V112h6.9v-2.6h-6.9v-2.5h9v-2.6h-12v13.1h12v-2.7H137.1L137.1,114.6z M81.6,103.6
		c3.9,0,6.2,2,6.2,5.4c0,4.8-3.9,5.5-6.2,5.5h-4.3v-10.9H81.6z M81.6,100.9h-7.3v16.3h7.3c6.8,0,9.2-4.4,9.2-8
		C90.8,104.1,87.4,100.9,81.6,100.9z M129.3,112.3c2.3-0.6,3.2-2.3,3.2-3.9c0-2.6-1.7-4.2-4.7-4.2h-8.6v13.1h3v-4.8h3.6l3.6,4.8h3.7
		L129.3,112.3L129.3,112.3z M122.2,109.8v-3h5.5c1,0,1.7,0.6,1.7,1.5c0,1.3-1,1.5-1.7,1.5L122.2,109.8L122.2,109.8z M65.2,117.3
		l-7.9-8.9v8.9h-3v-13.1h3l7.9,8.8v-8.8h3v13.1H65.2z"/>
</g>
<g>
	<path class="st4" d="M189.9,71.5h13v-4h-13v-3.4h14v-4.2h-22.2v19.4h22.7v-4.5h-14.5V71.5z M175.4,77.2c1.2-0.7,2.2-1.7,2.7-3
		c0.7-1,1-2.7,1-4.7c0-1.2-0.2-2.5-0.7-3.7c-0.2-1.2-1-2.2-2-3c-1-1-2.2-1.7-3.7-2.2c-1.5-0.5-3.5-0.7-5.7-0.7h-14.2v19.4h14.2
		c1.2,0,3-0.2,4.7-0.5C173.1,78.4,174.4,77.9,175.4,77.2z M170.1,73c-0.2,0.7-1,1.2-1.8,1.5c-0.7,0.2-1.7,0.2-3.5,0.2h-4V64.3h4
		c2,0,3.7,0.5,4.5,1.2c1,0.7,1.5,2,1.5,4C170.9,71.2,170.6,72.2,170.1,73L170.1,73z M223.6,71.7c0,1-0.2,1.7-1.2,2.5
		c-0.7,0.5-1.8,0.7-3.2,0.7c-1.5,0-2.5-0.2-3.5-0.7c-0.7-0.7-1-1.5-1-2.5V59.8h-8.5v11.7c0,0.7,0.5,2,1,3.2c0.2,0.7,0.7,1.5,1.8,2.2
		c0.7,0.7,1.8,1.2,2.7,1.5c1,0.5,2.2,0.7,3.7,1h4.5c2.2,0,4-0.2,5.7-0.5c1-0.2,2.2-1,3.2-1.7c1-0.7,1.8-1.5,2.2-2.5
		c0.5-1,0.7-2.2,0.7-3.2V59.8h-8.2L223.6,71.7L223.6,71.7z M267.1,75l13.3-11.2v-4H258v4.2h13.5l-14.4,11.2v4h23.3V75H267.1z
		 M233.3,64.8h7.3v14.4h8.2V64.8h7.3v-5h-22.9V64.8z"/>
</g>
<g>
	<path class="st4" d="M360.4,79.2h8.2v-7.5h11v-4h-11v-3.7h12v-4.2h-20.3L360.4,79.2L360.4,79.2z M418.8,71v8.2h-8.1V59.9h8.1v7.2
		h8.6v-7.2h8.1v19.3h-8.1V71H418.8L418.8,71z M462.9,65.4c0-3.1-2.5-5.6-5.6-5.6h-18.6v19.3h8.2V71h3.3l5.6,8.2h7.6l-5.6-8.2
		C460.6,70.7,462.9,68.3,462.9,65.4L462.9,65.4z M453.4,67l-6.5,0v-3h6.5c0.8,0,1.5,0.7,1.5,1.5C454.9,66.4,454.2,67,453.4,67
		L453.4,67z M398.7,60.1h-9.2l-10,19.1h8.5l1.2-3.2h9.5l1.3,3.2h8.7L398.7,60.1L398.7,60.1z M391,72l3-6.9l3,6.9H391z"/>
</g>
<path class="st4" d="M348.1,84h127.5v8.4H348.1V84z"/>
<path class="st4" d="M348.1,95.4h127.5v8.6H348.1V95.4z"/>
<path class="st4" d="M152.6,84h127.5v8.4H152.6V84z"/>
<path class="st4" d="M152.6,95.4h127.5v8.6H152.6V95.4z"/>
<path class="st4" d="M314.2,30.4v35.8l6.5-11.3L314.2,30.4z M322.7,61.7l7.2,25.9c0.3,1.2,0.8,2.4,2,3.3c1.2,1,4.6,2.8,4.6,2.8
	l2.3,11.7c0,0-10.7-8.7-13.2-10.9c-1.4-1.2-1.8-2.1-2.2-4.2c-0.3-1.8-3.5-22.3-3.5-22.3L322.7,61.7L322.7,61.7z"/>
<path class="st4" d="M322.7,61.7l7.2,25.3c0.3,1.2,0.8,2.3,2,3.2c1.2,0.9,4.6,3.5,4.6,3.5l0.8,8.9c0,0-8.8-7.4-10.7-9.1
	c-1.3-1.3-1.6-2-2-4c-0.3-1.7-3.8-21.6-3.8-21.6L322.7,61.7L322.7,61.7z M314.2,30.4v35.8L307.7,55L314.2,30.4z"/>
<path class="st4" d="M305.7,61.7l-7.2,25.9c-0.3,1.2-0.8,2.4-2,3.3c-1.2,1-4.6,2.8-4.6,2.8l-2.3,11.7c0,0,10.7-8.7,13.2-10.9
	c1.4-1.2,1.8-2.1,2.2-4.2c0.3-1.8,3.5-22.3,3.5-22.3L305.7,61.7L305.7,61.7z"/>
<path class="st4" d="M305.7,61.7L298.5,87c-0.3,1.2-0.8,2.3-2,3.2c-1.2,0.9-4.6,3.5-4.6,3.5l-0.8,8.9c0,0,8.8-7.4,10.7-9.1
	c1.3-1.3,1.6-2,2-4c0.3-1.7,3.8-21.6,3.8-21.6L305.7,61.7L305.7,61.7z"/>
<g>
	<path class="st5" d="M189.7,216.2h13v-4h-13v-3.4h14v-4.2h-22.2v19.4h22.7v-4.5h-14.5V216.2z M175.1,222c1.2-0.7,2.2-1.7,2.7-3
		c0.8-1,1-2.7,1-4.7c0-1.2-0.2-2.5-0.7-3.7c-0.3-1.2-1-2.2-2-3c-1-1-2.2-1.7-3.7-2.2c-1.5-0.5-3.5-0.7-5.7-0.7h-14.2v19.4h14.2
		c1.2,0,3-0.2,4.7-0.5C172.9,223.2,174.1,222.7,175.1,222z M169.9,217.7c-0.3,0.7-1,1.2-1.7,1.5c-0.7,0.2-1.7,0.2-3.5,0.2h-4v-10.4
		h4c2,0,3.7,0.5,4.5,1.2c1,0.7,1.5,2,1.5,4C170.6,216,170.4,217,169.9,217.7L169.9,217.7z M223.4,216.5c0,1-0.3,1.7-1.2,2.5
		c-0.7,0.5-1.7,0.7-3.2,0.7c-1.5,0-2.5-0.2-3.5-0.7c-0.7-0.7-1-1.5-1-2.5v-11.9h-8.5v11.7c0,0.7,0.5,2,1,3.2
		c0.2,0.7,0.7,1.5,1.7,2.2c0.7,0.7,1.7,1.2,2.7,1.5c1,0.5,2.2,0.7,3.7,1h4.5c2.2,0,4-0.2,5.7-0.5c1-0.2,2.2-1,3.2-1.7
		c1-0.7,1.7-1.5,2.2-2.5c0.5-1,0.7-2.2,0.7-3.2v-11.7h-8.2L223.4,216.5L223.4,216.5z M266.8,219.7l13.3-11.2v-4h-22.4v4.2h13.5
		L256.9,220v4h23.3v-4.2H266.8z M233.1,209.5h7.3v14.4h8.2v-14.4h7.3v-5h-22.9V209.5z"/>
</g>
<g>
	<path class="st5" d="M360.1,223.9h8.2v-7.5h11v-4h-11v-3.7h12v-4.2h-20.3V223.9z M418.6,215.8v8.2h-8.1v-19.3h8.1v7.2h8.6v-7.2h8.1
		v19.3h-8.1v-8.2H418.6z M462.6,210.2c0-3.1-2.5-5.6-5.6-5.6h-18.6v19.3h8.2v-8.2h3.3l5.6,8.2h7.6l-5.6-8.2
		C460.4,215.5,462.6,213.1,462.6,210.2L462.6,210.2z M453.1,211.8l-6.5,0v-3h6.5c0.8,0,1.5,0.7,1.5,1.5
		C454.6,211.1,454,211.8,453.1,211.8L453.1,211.8z M398.5,204.8h-9.2l-10,19.1h8.5l1.2-3.2h9.5l1.2,3.2h8.7L398.5,204.8L398.5,204.8
		z M390.8,216.7l3-6.9l3,6.9H390.8z"/>
</g>
<path class="st6" d="M347.9,228.8h127.5v8.4H347.9V228.8z"/>
<path class="st5" d="M347.9,240.1h127.5v8.6H347.9V240.1z"/>
<path class="st6" d="M152.4,228.8h127.5v8.4H152.4V228.8z"/>
<path class="st5" d="M152.4,240.1h127.5v8.6H152.4V240.1z"/>
<path class="st7" d="M314,175.2V211l6.5-11.3L314,175.2z M322.4,206.5l7.2,25.9c0.3,1.2,0.8,2.4,2,3.3c1.2,1,4.6,2.8,4.6,2.8
	l2.3,11.7c0,0-10.7-8.7-13.2-10.9c-1.4-1.2-1.8-2.1-2.2-4.2c-0.3-1.8-3.5-22.3-3.5-22.3L322.4,206.5L322.4,206.5z"/>
<path class="st8" d="M322.4,206.5l7.2,25.3c0.3,1.2,0.8,2.3,2,3.2c1.2,0.9,4.6,3.5,4.6,3.5l0.8,8.9c0,0-8.8-7.4-10.7-9.1
	c-1.3-1.3-1.6-2-2-4c-0.3-1.7-3.8-21.6-3.8-21.6L322.4,206.5L322.4,206.5z M314,175.2V211l-6.5-11.3L314,175.2z"/>
<path class="st7" d="M305.5,206.5l-7.2,25.9c-0.3,1.2-0.8,2.4-2,3.3c-1.2,1-4.6,2.8-4.6,2.8l-2.3,11.7c0,0,10.7-8.7,13.2-10.9
	c1.4-1.2,1.8-2.1,2.2-4.2c0.3-1.8,3.5-22.3,3.5-22.3L305.5,206.5L305.5,206.5z"/>
<path class="st8" d="M305.5,206.5l-7.2,25.3c-0.3,1.2-0.8,2.3-2,3.2c-1.2,0.9-4.6,3.5-4.6,3.5l-0.8,8.9c0,0,8.8-7.4,10.7-9.1
	c1.3-1.3,1.6-2,2-4c0.3-1.7,3.8-21.6,3.8-21.6L305.5,206.5L305.5,206.5z"/>
<g>
	<path class="st4" d="M750.1,41.6h-13.8l-9.6,36.7h13.8l2.7-10.3c0.4-2.3,2.3-1.9,2.3-1.9l3.1-12.2h-1.9L750.1,41.6z M770.8,41.6
		l-2.7,10.3c-0.4,2.3-2.3,1.9-2.3,1.9l-3.1,12.2h1.9l-3.4,12.2H775l9.6-36.7H770.8L770.8,41.6z"/>
	<path class="st4" d="M757.7,78.3l9.6-36.7h-13.8L744,78.3H757.7z M767.7,39.7l3.1-10.7H757l-3.1,10.7H767.7z M528.9,84l-16.8,19.9
		H778l5.4-19.9H528.9z"/>
	<g>
		<path class="st4" d="M561.5,57.6H576c0,0,4.6-18-19.1-18c-21.4,0-27.2,16.8-27.2,22.2c-0.4,0.4-2.3,17.6,21.4,17.6
			c19.5,0,23.3-14.5,23.3-14.5h-15.3c0,0-2.3,3.8-7.3,3.8c-4.6,0-7.7-3.4-6.1-8.8c1.5-4.6,6.1-8.4,11.1-8.4
			C561.5,51.5,561.8,55.7,561.5,57.6L561.5,57.6z M673.6,41.6h40.6l-2.7,10.3h-25.3l-0.8,3.4h25.3l-2.3,9.2h-25.3l-0.8,3.1h24.9
			l-2.7,10.7h-40.9L673.6,41.6z M586.3,78.3h-17.2L597,41.6h15.3l7.3,37.1h-16.8l-0.4-3.1h-13.8L586.3,78.3z M593.6,68h8l-0.8-10.3
			L593.6,68z M665.9,54.2l-15.3-0.4v-1.5c-0.8-1.5-1.9-2.3-4.6-2.3c-3.8,0-5,0.8-5,1.9c0,0.8,0.8,1.5,3.1,2.3
			c2.3,0.8,9.6,1.9,13.4,3.4c4.6,1.5,6.5,3.8,6.1,8c0,0,0.4,6.5-6.9,10.3c-7.7,3.8-15.7,3.4-15.7,3.4s-11.5-0.4-16.4-3.8
			c-5-4.2-4.2-10.7-4.6-10.7h16.1c0,0-0.8,5,6.1,5c4.6,0,5-1.5,5.4-1.9c0-0.8,0-1.1-1.9-1.9c-1.9-0.4-14.5-3.8-16.8-5.4
			c-1.1-1.1-4.2-3.4-4.2-7.7c0.4-5.7,6.9-13,21.1-12.6c14.2,0,17.6,5,18,5.4C664,46.2,666.3,48.8,665.9,54.2L665.9,54.2z"/>
	</g>
</g>
<g>
	<path class="st9" d="M734.8,186.8H721l-9.6,36.7h13.8l2.7-10.3c0.4-2.3,2.3-1.9,2.3-1.9l3.1-12.2h-1.9L734.8,186.8z M755.5,186.8
		l-2.7,10.3c-0.4,2.3-2.3,1.9-2.3,1.9l-3.1,12.2h1.9l-3.4,12.2h13.8l9.6-36.7H755.5z"/>
	<path class="st10" d="M742.4,223.5l9.6-36.7h-13.8l-9.6,36.7H742.4z M752.4,184.9l3.1-10.7h-13.8l-3.1,10.7H752.4z M513.6,229.2
		l-16.8,19.9h265.9l5.4-19.9H513.6z"/>
	<g>
		<path class="st9" d="M546.1,202.8h14.5c0,0,4.6-18-19.1-18c-21.4,0-27.2,16.8-27.2,22.2c-0.4,0.4-2.3,17.6,21.4,17.6
			c19.5,0,23.3-14.5,23.3-14.5h-15.3c0,0-2.3,3.8-7.3,3.8c-4.6,0-7.7-3.4-6.1-8.8c1.5-4.6,6.1-8.4,11.1-8.4
			C546.1,196.7,546.5,200.9,546.1,202.8L546.1,202.8z M658.3,186.8h40.6l-2.7,10.3h-25.3l-0.8,3.4h25.3l-2.3,9.2h-25.3l-0.8,3.1
			h24.9l-2.7,10.7h-40.9L658.3,186.8z M571,223.5h-17.2l27.9-36.7H597l7.3,37.1h-16.8l-0.4-3.1h-13.8L571,223.5z M578.3,213.2h8
			l-0.8-10.3L578.3,213.2z M650.6,199.4l-15.3-0.4v-1.5c-0.8-1.5-1.9-2.3-4.6-2.3c-3.8,0-5,0.8-5,1.9c0,0.8,0.8,1.5,3.1,2.3
			c2.3,0.8,9.6,1.9,13.4,3.4c4.6,1.5,6.5,3.8,6.1,8c0,0,0.4,6.5-6.9,10.3c-7.7,3.8-15.7,3.4-15.7,3.4s-11.5-0.4-16.5-3.8
			c-5-4.2-4.2-10.7-4.6-10.7h16.1c0,0-0.8,5,6.1,5c4.6,0,5-1.5,5.4-1.9c0-0.8,0-1.1-1.9-1.9c-1.9-0.4-14.5-3.8-16.8-5.4
			c-1.1-1.1-4.2-3.4-4.2-7.7c0.4-5.7,6.9-13,21-12.6c14.2,0,17.6,5,18,5.4C648.7,191.4,651,194,650.6,199.4L650.6,199.4z"/>
	</g>
</g>
<g>
	<path class="st11" d="M814.5,219.2l-6,0l-0.4,1.3l-2.3,8.7l-0.4,1.5l8.6,0l-0.6,2.4l-1.1,4.2h-18.6l-0.7-0.1l-0.4-0.2l-0.4-0.4
		l-0.2-0.5l-0.1-0.8l0.1-0.9l0.7-2.9l0.6-2.2l0.4-1.7l0.9-3.5l1-4l0.8-3.1l0.2-0.9l0.3-0.6l0.4-0.6l0.3-0.3l0.8-0.6l0.4-0.2l0.8-0.2
		l0.4-0.1H816L814.5,219.2L814.5,219.2z M832.2,218.7l-0.6,2.3l-1,3.8l-0.2,0.7l-1.3,5.2l5.9,0l-1.7,6.7l-15.7,0l-0.8-0.1l-0.5-0.2
		l-0.5-0.4l-0.3-0.6l-0.1-0.8l0.2-1.4l0.3-1.1l0.7-2.9l1.3-4.9l0.3-1.1l0.2-0.8l0-0.1l0.1-0.7l0.9-3.5l0.2-0.7l1-3.9l0.2-0.7h12.5
		L832.2,218.7L832.2,218.7z M850.6,224.8l-0.1,0.4l0,0h3.8l0-11.7h11.9v23.8h-11.9v-6.6H849l-1.5,5.8l-0.2,0.7v0h-11.8l0.3-1.1
		l2.9-11l0.9-3.3l1.6-5.8l0.3-0.7l0.3-0.4l0.4-0.4l0.7-0.5l0.7-0.3l0.7-0.1l0.4-0.1h9.1L850.6,224.8L850.6,224.8z M886.2,214.2
		l-2.5,9.4l-0.2,0.6l-0.3,1.1l3.9,0l0-11.7h11.9v23.8h-12v-6.6h-5.2l-1.8,6.6h-11.6l1.6-6.2l1.2-4.7l1.1-4.3l1.8-6.6l0.4-0.6
		l0.5-0.5l0.8-0.5l0.8-0.3l0.5-0.1h9L886.2,214.2L886.2,214.2z M927.5,218.8l-0.1,0.1l-0.1,0.1l-1.8,0h-7l-0.5,1.8l-0.6,2.4l0,0
		l7.8,0l0.6,0.1l0.6,0.3l0.3,0.4l0.2,0.4l0.1,0.8l0,0.6l-0.5,2l-1.7,6.7l-0.3,0.8l-0.6,0.7l-0.4,0.4l-0.6,0.4l-0.6,0.3l-1.4,0.1
		l-19.8,0l1.7-6.6l0,0v0h9.6l0.6-2.1l0.5-2.3l0-0.1l0,0l-7.5,0l-0.5-0.2l-0.2-0.1l-0.3-0.3l-0.3-0.5l-0.1-0.7l0.1-0.8l0.4-1.7
		l1.5-5.7l0.3-0.8l0.3-0.5l0.3-0.4l0.7-0.5l0.6-0.2l0.7-0.1h19.3L927.5,218.8L927.5,218.8z"/>
</g>
<g>
	<path class="st12" d="M815.3,69l-6,0l-0.4,1.3l-2.3,8.7l-0.4,1.5l8.6,0l-0.6,2.4l-1.1,4.2h-18.6l-0.7-0.1l-0.4-0.2l-0.4-0.4
		l-0.2-0.5l-0.1-0.8l0.1-0.9l0.7-2.9l0.6-2.2l0.4-1.7l0.9-3.5l1-4l0.8-3.1l0.2-0.9l0.3-0.6l0.4-0.6l0.3-0.3l0.8-0.6l0.4-0.2l0.8-0.2
		l0.4-0.1h15.8L815.3,69L815.3,69z M833,68.5l-0.6,2.3l-1,3.8l-0.2,0.7l-1.3,5.2l5.9,0l-1.7,6.7l-15.7,0l-0.8-0.1l-0.5-0.2l-0.5-0.4
		l-0.3-0.6l-0.1-0.8l0.2-1.4l0.3-1.1l0.7-2.9l1.3-4.9l0.3-1.1l0.2-0.8l0-0.1l0.1-0.7l0.9-3.5l0.2-0.7l1-3.9l0.2-0.7h12.5L833,68.5
		L833,68.5z M851.3,74.7l-0.1,0.4l0,0h3.8l0-11.7H867v23.8h-11.9v-6.6h-5.3l-1.5,5.8l-0.2,0.7v0h-11.8l0.3-1.1l2.9-11l0.9-3.3
		l1.6-5.8l0.3-0.7l0.3-0.4l0.4-0.4l0.7-0.5l0.7-0.3l0.7-0.1l0.4-0.1h9.1L851.3,74.7L851.3,74.7z M887,64.1l-2.5,9.4l-0.2,0.6
		l-0.3,1.1l3.9,0l0-11.7h11.9v23.8h-12v-6.6h-5.2l-1.8,6.6h-11.6L871,81l1.2-4.7l1.1-4.3l1.8-6.6l0.4-0.6l0.5-0.5l0.8-0.5l0.8-0.3
		l0.5-0.1h9L887,64.1L887,64.1z M928.3,68.7l-0.1,0.1l-0.1,0.1l-1.8,0h-7l-0.5,1.8l-0.6,2.4l0,0l7.8,0l0.6,0.1l0.6,0.3l0.3,0.4
		l0.2,0.4l0.1,0.8l0,0.6l-0.5,2l-1.7,6.7l-0.3,0.8l-0.6,0.7l-0.4,0.4l-0.6,0.4l-0.6,0.3l-1.4,0.1l-19.8,0l1.7-6.6l0,0v0h9.6l0.6-2.1
		l0.5-2.3l0-0.1l0,0l-7.5,0l-0.5-0.2l-0.2-0.1l-0.3-0.3l-0.3-0.5l-0.1-0.7l0.1-0.8l0.4-1.7l1.5-5.7l0.3-0.8l0.3-0.5l0.3-0.4l0.7-0.5
		l0.6-0.2l0.7-0.1h19.3L928.3,68.7L928.3,68.7z"/>
</g>
<g>
	<polygon class="st4" points="1060.6,65.7 1079.5,54.7 1068.6,54.7 1049.6,65.7 	"/>
	<path class="st4" d="M1009.3,89.7c-0.3,0-0.6,0-0.9-0.1L996,96.8h11l12.2-7.1H1009.3z"/>
	<polygon class="st4" points="1047.3,65.7 1066.3,54.7 1021.4,54.7 1002.3,65.7 	"/>
	<path class="st4" d="M961,89.7c-0.1,0-0.2,0-0.3,0l-12.3,7.1h45l12.3-7.1H961z"/>
	<polygon class="st4" points="942.8,67.2 961.7,67.2 962.7,71.9 954,71.9 954.7,75.1 963.4,75.1 964.2,79.5 955.7,79.5 957.4,86.7 
		948.4,86.7 	"/>
	<polygon class="st4" points="1014.1,67.1 1012.5,86.8 1031.1,86.8 1031.5,86.7 1032.1,86.6 1032.4,86.5 1032.8,86.3 1033.3,86.1 
		1033.6,85.9 1033.9,85.7 1034.4,85.1 1034.7,84.5 1034.8,84 1035,83.7 1035.1,83.1 1035.4,81.6 1036.3,77.5 1037.6,71.4 
		1037.6,70.1 1037.5,69.7 1037.2,69.2 1037,68.9 1036.8,68.5 1036.5,68.3 1036.2,67.9 1035.7,67.7 1035.3,67.5 1034.8,67.3 
		1034.4,67.2 1034,67.1 	"/>
	<polygon class="st13" points="1022.8,71.9 1021.4,82.4 1025.7,82.4 1026.1,82.3 1026.3,82.2 1026.5,82.1 1026.6,81.9 1026.7,81.6 
		1026.7,81.5 1028,73.1 1028.2,73 1028,72.8 1028,72.5 1027.9,72.3 1027.8,72.1 1027.5,71.9 	"/>
	<polygon class="st4" points="1038.5,71.9 1043.6,71.9 1040.1,86.7 1049.2,86.7 1053.7,71.9 1059.5,71.9 1061,67.2 1039.5,67.2 	"/>
	<polygon class="st4" points="987.5,86.7 986.3,67.2 996.9,67.2 1004.4,78.2 1004.9,67.2 1010.7,67.2 1009.4,86.7 999.8,86.7 
		992.4,76.6 992.5,86.7 	"/>
	<polygon class="st4" points="964.4,67.2 967.8,86.7 984.9,86.7 984.5,82.4 976.2,82.4 975.9,79.5 984.3,79.5 984,74.9 975.2,74.9 
		974.7,71.8 983.8,71.8 983.4,67.2 	"/>
</g>
<g>
	<polygon class="st14" points="1006.2,240.7 996.1,246.5 1007.1,246.5 1017.2,240.7 	"/>
	<polygon class="st14" points="1061.4,215 1079.6,204.5 1068.6,204.5 1050.5,215 	"/>
	<polygon class="st15" points="1048.1,215 1066.3,204.5 1021.4,204.5 1003.1,215 	"/>
	<polygon class="st15" points="958.6,240.7 948.4,246.5 993.5,246.5 1003.6,240.7 	"/>
	<polygon class="st16" points="942.8,216.9 961.8,216.9 962.8,221.7 954,221.7 954.8,224.8 963.4,224.8 964.2,229.3 955.8,229.3 
		957.4,236.4 948.4,236.4 	"/>
	<polygon class="st16" points="1014.2,216.8 1012.5,236.6 1031.2,236.6 1031.6,236.4 1032.2,236.3 1032.5,236.2 1032.8,236.1 
		1033.4,235.9 1033.7,235.7 1033.9,235.5 1034.5,234.9 1034.8,234.3 1034.9,233.8 1035,233.5 1035.1,232.8 1035.4,231.4 
		1036.3,227.2 1037.6,221.2 1037.6,219.9 1037.5,219.5 1037.3,219 1037.1,218.7 1036.9,218.3 1036.5,218 1036.2,217.7 1035.8,217.5 
		1035.3,217.3 1034.9,217.1 1034.5,216.9 1034,216.8 1014.2,216.8 	"/>
	<polygon class="st13" points="1022.8,221.7 1021.4,232.2 1025.8,232.2 1026.1,232.1 1026.3,232 1026.6,231.8 1026.7,231.6 
		1026.8,231.4 1026.8,231.3 1028.1,222.9 1028.2,222.8 1028.1,222.5 1028.1,222.3 1028,222.1 1027.9,221.9 1027.6,221.7 
		1022.8,221.7 	"/>
	<polygon class="st16" points="1038.5,221.7 1043.7,221.7 1040.2,236.4 1049.2,236.4 1053.7,221.7 1059.5,221.7 1061.1,216.9 
		1039.6,216.9 1038.5,221.7 	"/>
	<polygon class="st16" points="987.6,236.4 986.3,216.9 997,216.9 1004.4,228 1005,216.9 1010.8,216.9 1009.5,236.4 999.8,236.4 
		992.5,226.4 992.6,236.4 	"/>
	<polygon class="st16" points="964.4,216.9 967.8,236.4 984.9,236.4 984.6,232.2 976.3,232.2 975.9,229.3 984.4,229.3 984,224.7 
		975.3,224.7 974.7,221.5 983.8,221.5 983.5,216.9 	"/>
</g>
<g>
	<path class="st4" d="M1144.8,90.8h-1.9l-1.2,9.9h-0.4l-1.5-9.9h-2.9l-1.3,9.9h-0.3l-1.5-9.9h-1.9l1.8,12.8h3.2l1.5-10.1h0.1
		l1.3,10.1h3.4L1144.8,90.8L1144.8,90.8z M1147.7,103.7h2v-4.8h4.1v4.8h2V91h-2v4.8h-4.1V91h-2V103.7L1147.7,103.7z M1166.7,96.8
		c0-3.8-1.8-6.1-5-6.1c-3.5,0-5,2.3-5,6.1c0,3.5,1.2,6.9,5,6.9C1165.4,103.7,1166.7,100.3,1166.7,96.8L1166.7,96.8z M1167.6,103.7
		h5.8v-2.9h-3.8v-9.9h-2V103.7z M1187.4,91h-3.8l-2.8,12.7h2.2l0.4-2.3h4.1l0.4,2.3h2L1187.4,91L1187.4,91z M1184.9,93.7h1.2l1,5.5
		h-3.4L1184.9,93.7L1184.9,93.7z M1125.9,103.7h5.3v-2.9h-4.2v-2.5h4.2v-1.8h-4.2v-2.8h4.2v-2.9h-6.3V101l-3.5-10.2h-3.2v12.8h2
		l-0.1-10.1l3.6,10.1L1125.9,103.7L1125.9,103.7L1125.9,103.7z M1174.3,103.7h5.8v-2.9h-3.8v-9.9h-2L1174.3,103.7L1174.3,103.7z
		 M1197.9,101l-3.6-10.2h-3.2v12.8h2l-0.1-10.1l3.6,10.1h4.7c4.2,0,5.1-2.2,5.1-7c-0.1-3.9-1.3-5.8-5.1-5.8h-3.5v5.8L1197.9,101z
		 M1199.9,97.1v-3.5h1.5c2.2,0,3.2,0.7,3.2,3.6v-0.1c0,2.9-1,3.8-3.2,3.6h-1.5V97.1L1199.9,97.1z M1164.8,96.8
		c0,1.9-0.1,4.1-3.1,4.1s-3.2-2.2-3.2-4.1c0-1.8,0.9-3.2,3.2-3.2C1164.1,93.6,1164.8,95,1164.8,96.8z"/>
	<path class="st4" d="M1134.6,49.6c0-0.9,0.6-1.5,1-1c5.3,5.3,24.6,19.5,24.5,32.1c-0.1,0.7-0.7,1.2-1.5,1.2
		C1144.2,80.8,1132.4,75.1,1134.6,49.6L1134.6,49.6z M1179.5,27.2c-4.1-2.2-8.3-3.2-13.4-3.5c-1,0-1.5,0.7-1.6,1.6
		c-0.4,6.6-0.3,10.2-0.4,16.6c-0.1,1,0.6,2.3,1.8,0.9c5.4-5.3,8.5-8.2,13.9-13.4C1180.5,28.7,1180.3,27.5,1179.5,27.2L1179.5,27.2z
		 M1144.5,27.2c4.2-2.2,8.5-3.2,13.6-3.5c1,0,1.5,0.7,1.6,1.6c0.4,6.6,0.3,10.2,0.4,16.6c0.1,1-0.6,2.3-1.9,0.9
		c-5.4-5.3-8.5-8.2-13.7-13.4C1143.5,28.7,1144,27.5,1144.5,27.2L1144.5,27.2z M1182.9,31.3c-10.2,9.8-19.2,16.3-18.8,33.8
		c0,0.7,0.6,1.5,1.6,0.6c8.5-8.3,13.3-12.8,21.9-21.1c1.3-1.3,1.6-2.5,1.2-4.5c-0.9-3.6-1.6-5.3-3.8-8.2
		C1184.3,31.3,1183.8,31,1182.9,31.3L1182.9,31.3z M1141.3,31.3c10.2,9.8,19.2,16.3,18.8,33.8c0,0.7-0.6,1.5-1.6,0.6
		c-8.5-8.3-13.3-12.8-21.9-21.1c-1.3-1.3-1.6-2.5-1.2-4.5c0.9-3.6,1.6-5.3,3.8-8.2C1139.9,31.3,1140.4,31,1141.3,31.3z M1189.7,49.6
		c0-0.9-0.4-1.5-1-1c-5.1,5.3-24.6,19.5-24.5,32.1c0.1,0.7,0.9,1.2,1.6,1.2C1180.1,80.8,1191.9,75.1,1189.7,49.6L1189.7,49.6z"/>
</g>
<g>
	<path class="st17" d="M1145.3,237.3h-1.9l-1.2,9.9h-0.4l-1.5-9.9h-2.9l-1.3,9.9h-0.3l-1.5-9.9h-1.9l1.8,12.8h3.2l1.5-10.1h0.1
		l1.3,10.1h3.4L1145.3,237.3L1145.3,237.3z M1148.2,250.2h2v-4.8h4.1v4.8h2v-12.7h-2v4.8h-4.1v-4.8h-2V250.2L1148.2,250.2z
		 M1167.2,243.3c0-3.8-1.7-6.1-5-6.1c-3.5,0-5,2.3-5,6.1c0,3.5,1.2,6.9,5,6.9C1165.9,250.2,1167.2,246.8,1167.2,243.3L1167.2,243.3z
		 M1168,250.2h5.8v-2.9h-3.8v-9.9h-2V250.2z M1187.9,237.5h-3.8l-2.8,12.7h2.2l0.4-2.3h4.1l0.4,2.3h2L1187.9,237.5L1187.9,237.5z
		 M1185.4,240.3h1.2l1,5.5h-3.4L1185.4,240.3L1185.4,240.3z M1126.3,250.2h5.2v-2.9h-4.2v-2.5h4.2V243h-4.2v-2.8h4.2v-2.9h-6.3v10.2
		l-3.5-10.2h-3.2v12.8h2l-0.1-10.1l3.6,10.1L1126.3,250.2L1126.3,250.2L1126.3,250.2z M1174.8,250.2h5.8v-2.9h-3.8v-9.9h-2V250.2z
		 M1198.4,247.5l-3.6-10.2h-3.2v12.8h2l-0.1-10.1l3.6,10.1h4.7c4.2,0,5.1-2.2,5.1-7c-0.1-3.9-1.3-5.8-5.1-5.8h-3.5v5.8L1198.4,247.5
		z M1200.4,243.6v-3.5h1.5c2.2,0,3.2,0.7,3.2,3.6v-0.1c0,2.9-1,3.8-3.2,3.6h-1.5V243.6L1200.4,243.6z M1165.3,243.3
		c0,1.9-0.1,4.1-3.1,4.1c-2.9,0-3.2-2.2-3.2-4.1c0-1.7,0.9-3.2,3.2-3.2C1164.6,240.1,1165.3,241.6,1165.3,243.3z"/>
	<path class="st17" d="M1135.1,196.1c0-0.9,0.6-1.5,1-1c5.2,5.2,24.6,19.5,24.5,32.1c-0.1,0.7-0.7,1.2-1.5,1.2
		C1144.7,227.3,1132.9,221.6,1135.1,196.1L1135.1,196.1z M1180,173.8c-4.1-2.2-8.3-3.2-13.4-3.5c-1,0-1.5,0.7-1.6,1.6
		c-0.4,6.6-0.3,10.2-0.4,16.6c-0.1,1,0.6,2.3,1.7,0.9c5.4-5.2,8.5-8.2,13.9-13.4C1181,175.2,1180.7,174.1,1180,173.8L1180,173.8z
		 M1145,173.8c4.2-2.2,8.5-3.2,13.6-3.5c1,0,1.5,0.7,1.6,1.6c0.4,6.6,0.3,10.2,0.4,16.6c0.1,1-0.6,2.3-1.9,0.9
		c-5.4-5.2-8.5-8.2-13.7-13.4C1144,175.2,1144.4,174.1,1145,173.8L1145,173.8z M1183.4,177.8c-10.2,9.8-19.2,16.3-18.8,33.8
		c0,0.7,0.6,1.5,1.6,0.6c8.5-8.3,13.3-12.8,21.9-21.1c1.3-1.3,1.6-2.5,1.2-4.5c-0.9-3.6-1.6-5.2-3.8-8.2
		C1184.8,177.8,1184.2,177.6,1183.4,177.8L1183.4,177.8z M1141.8,177.8c10.2,9.8,19.2,16.3,18.8,33.8c0,0.7-0.6,1.5-1.6,0.6
		c-8.5-8.3-13.3-12.8-21.9-21.1c-1.3-1.3-1.6-2.5-1.2-4.5c0.9-3.6,1.6-5.2,3.8-8.2C1140.3,177.8,1140.9,177.6,1141.8,177.8z
		 M1190.2,196.1c0-0.9-0.4-1.5-1-1c-5.1,5.2-24.6,19.5-24.5,32.1c0.1,0.7,0.9,1.2,1.6,1.2C1180.6,227.3,1192.4,221.6,1190.2,196.1
		L1190.2,196.1z"/>
</g>
</svg>
